<svg id="Layer_2" data-name="Layer 2" xmlns="http://www.w3.org/2000/svg" viewBox="0 0 1079.91 1079.91"><defs><style>.cls-1{fill:#f68b20;}.cls-2{fill:#1a325d;}.cls-3{fill:none;stroke:#231f20;stroke-miterlimit:10;stroke-width:5px;}.cls-4{fill:#fff;}</style></defs><path class="cls-1" d="M1079.91,538.05a540.31,540.31,0,0,1-97.34,310L859.72,702.66,603.38,399.33H468.86L216.14,703.78,96.4,848A537.45,537.45,0,0,1,0,540.05C0,241.84,241.75.09,540,.09S1079.91,239.84,1079.91,538.05Z" transform="translate(0 -0.09)"/><path class="cls-2" d="M982.57,848C885,988.06,723.1,1080,540,1080c-183.73,0-346-91.77-443.55-232L216.14,703.78c13.61,11.92,36.32,27.91,61.05,28.89,72.87,2.86,108.14-104.36,164.29-96.43,45.77,6.47,53.76,82.18,91.66,81,38.78-1.26,42.71-80.9,86.91-89.29,56.54-10.72,99,110.3,175,106,27.52-1.58,52.64-19.21,64.67-31.2Z" transform="translate(0 -0.09)"/><line class="cls-3" x1="91.37" y1="840.58" x2="91.37" y2="840.58"/><path class="cls-4" d="M859.72,702.66c-12,12-37.15,29.62-64.67,31.2-76,4.34-118.46-116.68-175-106-44.2,8.39-48.13,88-86.91,89.29-37.9,1.23-45.89-74.48-91.66-81-56.15-7.93-91.42,99.29-164.29,96.43-24.73-1-47.44-17-61.05-28.89L468.86,399.33H603.38Z" transform="translate(0 -0.09)"/></svg>