<svg id="square_logo" data-name="square logo" xmlns="http://www.w3.org/2000/svg" viewBox="0 0 1094.04 1080"><defs><style>.cls-1{fill:#1a325d;}.cls-2{fill:#fff;}.cls-3{fill:#f68b20;}.cls-4,.cls-5{fill:none;}.cls-4{stroke:#231f20;stroke-miterlimit:10;stroke-width:5px;}</style></defs><path class="cls-1" d="M1079.91,945.37v25A109.65,109.65,0,0,1,970.26,1080H109.56A109.65,109.65,0,0,1-.09,970.35V944.52L96.4,848,216.14,703.78c13.61,11.92,36.32,27.91,61.05,28.89,72.87,2.86,108.14-104.36,164.29-96.43,45.77,6.47,53.76,82.18,91.66,81,38.78-1.26,42.71-80.9,86.91-89.29,56.54-10.72,99,110.3,175,106,27.52-1.58,52.64-19.21,64.67-31.2L982.57,848Z" transform="translate(14.13)"/><path class="cls-2" d="M859.72,702.66c-12,12-37.15,29.62-64.67,31.2-76,4.34-118.46-116.68-175-106-44.2,8.39-48.13,88-86.91,89.29-37.9,1.23-45.89-74.48-91.66-81-56.15-7.93-91.42,99.29-164.29,96.43-24.73-1-47.44-17-61.05-28.89L468.86,399.33H603.38Z" transform="translate(14.13)"/><path class="cls-3" d="M1079.91,109.65V945.37L982.57,848,859.72,702.66,603.38,399.33H468.86L216.14,703.78,96.4,848-.09,944.52V109.65A109.65,109.65,0,0,1,109.56,0h860.7A109.65,109.65,0,0,1,1079.91,109.65Z" transform="translate(14.13)"/><line class="cls-4" x1="105.5" y1="840.67" x2="105.5" y2="840.67"/><line class="cls-5" x1="14.04" y1="944.52" y2="958.56"/></svg>